HIERARCHY
ROOT pelvis
{
	OFFSET 0.003123 -0.351407 0.012037
	CHANNELS 6 Xposition Yposition Zposition Zrotation Yrotation Xrotation 
	JOINT left_hip
	{
		OFFSET 0.058189 -0.092763 -0.026001
		CHANNELS 3 Zrotation Yrotation Xrotation
		JOINT left_knee
		{
			OFFSET 0.054695 -0.378753 -0.009396
			CHANNELS 3 Zrotation Yrotation Xrotation
			JOINT left_ankle
			{
				OFFSET -0.043453 -0.403059 -0.031876
				CHANNELS 3 Zrotation Yrotation Xrotation
				JOINT left_foot
				{
					OFFSET 0.047257 -0.057997 0.118216
					CHANNELS 3 Zrotation Yrotation Xrotation
					End Site
					{
						OFFSET 0.000000 0.000000 0.000000
					}
				}
			}
		}
	}
	JOINT right_hip
	{
		OFFSET -0.063267 -0.103908 -0.021250
		CHANNELS 3 Zrotation Yrotation Xrotation
		JOINT right_knee
		{
			OFFSET -0.044210 -0.362380 -0.016824
			CHANNELS 3 Zrotation Yrotation Xrotation
			JOINT right_ankle
			{
				OFFSET 0.015417 -0.410728 -0.020192
				CHANNELS 3 Zrotation Yrotation Xrotation
				JOINT right_foot
				{
					OFFSET -0.038812 -0.058328 0.119049
					CHANNELS 3 Zrotation Yrotation Xrotation
					End Site
					{
						OFFSET 0.000000 0.000000 0.000000
					}
				}
			}
		}
	}
	JOINT spine_1
	{
		OFFSET -0.002763 0.109891 -0.027618
		CHANNELS 3 Zrotation Yrotation Xrotation
		JOINT spine_2
		{
			OFFSET 0.009448 0.131853 -0.005940
			CHANNELS 3 Zrotation Yrotation Xrotation
			JOINT spine_3
			{
				OFFSET -0.011330 0.052235 0.028447
				CHANNELS 3 Zrotation Yrotation Xrotation
				JOINT neck
				{
					OFFSET -0.012164 0.165167 -0.031615
					CHANNELS 3 Zrotation Yrotation Xrotation
					JOINT head
					{
						OFFSET 0.024783 0.160452 0.020737
						CHANNELS 3 Zrotation Yrotation Xrotation
						End Site
						{
							OFFSET 0.000000 0.000000 0.000000
						}
					}
				}
				JOINT left_collar
				{
					OFFSET 0.046364 0.084944 -0.007220
					CHANNELS 3 Zrotation Yrotation Xrotation
					JOINT left_shoulder
					{
						OFFSET 0.119239 0.057728 -0.015461
						CHANNELS 3 Zrotation Yrotation Xrotation
						JOINT left_elbow
						{
							OFFSET 0.254123 -0.072151 -0.042459
							CHANNELS 3 Zrotation Yrotation Xrotation
							JOINT left_wrist
							{
								OFFSET 0.251987 0.023221 -0.002472
								CHANNELS 3 Zrotation Yrotation Xrotation
								JOINT left_index_1
								{
									OFFSET 0.101902 -0.008688 0.019351
									CHANNELS 3 Zrotation Yrotation Xrotation
									JOINT left_index_2
									{
										OFFSET 0.030149 -0.011154 0.001151
										CHANNELS 3 Zrotation Yrotation Xrotation
										JOINT left_index_3
										{
											OFFSET 0.006504 -0.021577 -0.002433
											CHANNELS 3 Zrotation Yrotation Xrotation
											End Site
											{
												OFFSET 0.000000 0.000000 0.000000
											}
										}
									}
								}
								JOINT left_middle_1
								{
									OFFSET 0.109398 -0.006328 -0.003981
									CHANNELS 3 Zrotation Yrotation Xrotation
									JOINT left_middle_2
									{
										OFFSET 0.026472 -0.015218 -0.004641
										CHANNELS 3 Zrotation Yrotation Xrotation
										JOINT left_middle_3
										{
											OFFSET 0.005022 -0.023347 -0.001911
											CHANNELS 3 Zrotation Yrotation Xrotation
											End Site
											{
												OFFSET 0.000000 0.000000 0.000000
											}
										}
									}
								}
								JOINT left_pinky_1
								{
									OFFSET 0.084047 -0.014539 -0.043750
									CHANNELS 3 Zrotation Yrotation Xrotation
									JOINT left_pinky_2
									{
										OFFSET 0.012124 -0.014448 -0.005375
										CHANNELS 3 Zrotation Yrotation Xrotation
										JOINT left_pinky_3
										{
											OFFSET 0.003798 -0.018853 0.000167
											CHANNELS 3 Zrotation Yrotation Xrotation
											End Site
											{
												OFFSET 0.000000 0.000000 0.000000
											}
										}
									}
								}
								JOINT left_ring_1
								{
									OFFSET 0.097444 -0.009268 -0.027345
									CHANNELS 3 Zrotation Yrotation Xrotation
									JOINT left_ring_2
									{
										OFFSET 0.023561 -0.016057 -0.001895
										CHANNELS 3 Zrotation Yrotation Xrotation
										JOINT left_ring_3
										{
											OFFSET 0.004257 -0.023548 0.000814
											CHANNELS 3 Zrotation Yrotation Xrotation
											End Site
											{
												OFFSET 0.000000 0.000000 0.000000
											}
										}
									}
								}
								JOINT left_thumb_1
								{
									OFFSET 0.040636 -0.017977 0.025611
									CHANNELS 3 Zrotation Yrotation Xrotation
									JOINT left_thumb_2
									{
										OFFSET 0.021637 -0.017639 0.011623
										CHANNELS 3 Zrotation Yrotation Xrotation
										JOINT left_thumb_3
										{
											OFFSET 0.024002 -0.008356 0.006548
											CHANNELS 3 Zrotation Yrotation Xrotation
											End Site
											{
												OFFSET 0.000000 0.000000 0.000000
											}
										}
									}
								}
							}
						}
					}
				}
				JOINT right_collar
				{
					OFFSET -0.047695 0.084339 -0.013400
					CHANNELS 3 Zrotation Yrotation Xrotation
					JOINT right_shoulder
					{
						OFFSET -0.102578 0.053524 -0.012669
						CHANNELS 3 Zrotation Yrotation Xrotation
						JOINT right_elbow
						{
							OFFSET -0.271150 -0.036492 -0.026467
							CHANNELS 3 Zrotation Yrotation Xrotation
							JOINT right_wrist
							{
								OFFSET -0.249267 -0.004533 -0.015325
								CHANNELS 3 Zrotation Yrotation Xrotation
								JOINT right_index_1
								{
									OFFSET -0.099881 -0.011783 0.019600
									CHANNELS 3 Zrotation Yrotation Xrotation
									JOINT right_index_2
									{
										OFFSET -0.030148 -0.011154 0.001151
										CHANNELS 3 Zrotation Yrotation Xrotation
										JOINT right_index_3
										{
											OFFSET -0.006505 -0.021577 -0.002432
											CHANNELS 3 Zrotation Yrotation Xrotation
											End Site
											{
												OFFSET 0.000000 0.000000 0.000000
											}
										}
									}
								}
								JOINT right_middle_1
								{
									OFFSET -0.107376 -0.009422 -0.003734
									CHANNELS 3 Zrotation Yrotation Xrotation
									JOINT right_middle_2
									{
										OFFSET -0.026472 -0.015218 -0.004641
										CHANNELS 3 Zrotation Yrotation Xrotation
										JOINT right_middle_3
										{
											OFFSET -0.005022 -0.023347 -0.001911
											CHANNELS 3 Zrotation Yrotation Xrotation
											End Site
											{
												OFFSET 0.000000 0.000000 0.000000
											}
										}
									}
								}
								JOINT right_pinky_1
								{
									OFFSET -0.082027 -0.017634 -0.043503
									CHANNELS 3 Zrotation Yrotation Xrotation
									JOINT right_pinky_2
									{
										OFFSET -0.012123 -0.014448 -0.005374
										CHANNELS 3 Zrotation Yrotation Xrotation
										JOINT right_pinky_3
										{
											OFFSET -0.003798 -0.018852 0.000167
											CHANNELS 3 Zrotation Yrotation Xrotation
											End Site
											{
												OFFSET 0.000000 0.000000 0.000000
											}
										}
									}
								}
								JOINT right_ring_1
								{
									OFFSET -0.095423 -0.012362 -0.027099
									CHANNELS 3 Zrotation Yrotation Xrotation
									JOINT right_ring_2
									{
										OFFSET -0.023561 -0.016057 -0.001895
										CHANNELS 3 Zrotation Yrotation Xrotation
										JOINT right_ring_3
										{
											OFFSET -0.004257 -0.023548 0.000816
											CHANNELS 3 Zrotation Yrotation Xrotation
											End Site
											{
												OFFSET 0.000000 0.000000 0.000000
											}
										}
									}
								}
								JOINT right_thumb_1
								{
									OFFSET -0.038613 -0.021074 0.025861
									CHANNELS 3 Zrotation Yrotation Xrotation
									JOINT right_thumb_2
									{
										OFFSET -0.021636 -0.017639 0.011623
										CHANNELS 3 Zrotation Yrotation Xrotation
										JOINT right_thumb_3
										{
											OFFSET -0.024004 -0.008353 0.006547
											CHANNELS 3 Zrotation Yrotation Xrotation
											End Site
											{
												OFFSET 0.000000 0.000000 0.000000
											}
										}
									}
								}
							}
						}
					}
				}
			}
		}
	}
}
MOTION
Frames: 4
Frame Time: 0.050000
0.009979 0.946581 -0.024490 2.339468 1.439493 -4.881831 -2.453126 1.711257 10.023918 3.846352 1.082132 -9.873218 -5.175743 -4.820196 6.064839 0.000000 0.000000 0.000000 -5.639972 -0.395183 7.975163 1.052304 -0.180280 -4.292237 2.715638 4.833217 1.035520 0.000000 0.000000 0.000000 -4.591687 -0.307011 1.316094 -7.129770 0.823186 -11.116799 9.426948 -1.450402 22.288640 2.298902 -0.215846 -1.085128 0.000000 0.000000 0.000000 -1.598037 1.261366 -0.797054 -52.542654 11.454037 -11.025227 -25.755827 -33.240156 11.268969 -0.052575 3.894096 8.012177 -17.079689 4.235192 1.240038 13.253287 -0.718483 5.161993 0.000000 0.000000 0.000000 -10.523426 -2.084844 -2.923278 -9.014995 0.180394 -2.956492 0.000000 0.000000 0.000000 20.331566 -12.257593 -8.168028 -33.523927 -5.758463 -12.637451 0.000000 0.000000 0.000000 -6.550843 -0.131412 -0.729474 -22.687953 -4.074855 -11.150977 0.000000 0.000000 0.000000 20.090827 24.251799 19.782794 -15.614793 -10.608848 2.099099 0.000000 0.000000 0.000000 0.422568 -3.899039 -2.093589 52.231213 -1.793989 -6.925606 19.135758 33.366354 4.219743 14.154401 -3.907095 14.457420 20.042016 -2.888568 0.528908 -1.693478 -5.313369 13.614330 0.000000 0.000000 0.000000 20.791178 0.784612 -4.681912 8.776399 -1.152918 -1.289616 0.000000 0.000000 0.000000 4.592299 9.535427 -11.378254 25.962286 0.583316 -4.644064 0.000000 0.000000 0.000000 22.049090 -1.326595 -2.396656 15.166709 1.887330 -9.695817 0.000000 0.000000 0.000000 -7.986751 -31.155031 31.657169 2.466974 15.753757 -4.149110 0.000000 0.000000 0.000000 
0.011127 0.954639 -0.007332 3.470907 3.467671 -7.073713 -3.684766 1.496121 8.178336 4.198844 -0.254055 -0.411446 -4.984897 -5.642200 4.590764 0.000000 0.000000 0.000000 -4.792884 -0.452547 6.938202 -2.493174 0.409966 4.536048 1.196299 2.886779 -0.610668 0.000000 0.000000 0.000000 -7.888671 -0.501377 6.274079 -7.560770 0.340788 -13.917120 12.013372 -1.000734 24.790170 3.054761 -0.077798 -2.520078 0.000000 0.000000 0.000000 -1.734731 1.323227 -0.869833 -53.874262 3.219459 -10.426655 -25.656887 -28.525316 9.530560 -5.403552 4.307728 12.632934 -39.978115 11.004873 -0.042871 -16.495687 2.910326 -0.070761 0.000000 0.000000 0.000000 -41.990587 5.667183 -7.599802 -16.488211 -1.877273 -10.486757 0.000000 0.000000 0.000000 -32.093495 -14.283618 -23.669849 -26.514984 -3.384636 -5.981975 0.000000 0.000000 0.000000 -44.039916 -0.144572 -6.054684 -22.385942 -5.338458 -15.002584 0.000000 0.000000 0.000000 -2.503896 30.546497 31.344994 24.753120 -8.123981 -13.090566 0.000000 0.000000 0.000000 0.596519 -3.534713 -1.916298 55.505425 2.486266 -5.528328 13.556922 32.599833 2.907649 24.941675 -9.093063 13.274691 23.004427 -11.479881 2.700781 5.041301 -4.952550 5.909625 0.000000 0.000000 0.000000 26.498736 -0.658656 -5.487617 8.532364 1.169726 -8.249977 0.000000 0.000000 0.000000 5.028455 17.624419 -22.720131 7.231184 -0.360809 1.122781 0.000000 0.000000 0.000000 24.438093 7.689699 -6.794782 8.368915 -0.171406 -1.484461 0.000000 0.000000 0.000000 -10.560035 -38.377035 43.250756 -3.422603 17.838464 -7.456547 0.000000 0.000000 0.000000 
0.008360 0.944324 0.011147 2.819352 2.357356 -6.314816 -2.369096 1.339642 7.887984 3.332014 -0.385549 0.951999 -2.650583 -4.812784 0.657374 0.000000 0.000000 0.000000 -3.389613 -0.323748 4.529975 -3.301295 0.779230 9.147348 -0.181320 3.276225 -5.269450 0.000000 0.000000 0.000000 -5.456988 -0.510341 8.733377 -7.425302 0.014598 -14.727215 9.728931 -0.478498 25.746833 4.685232 -0.289590 -2.801635 0.000000 0.000000 0.000000 -1.630528 -0.504927 0.069619 -56.937751 -2.900736 -9.764849 -19.692538 -27.531366 7.657431 -11.821780 8.850629 16.603579 -89.294293 47.960612 -15.968955 -29.827320 -29.186146 -41.349228 0.000000 0.000000 0.000000 -82.174512 35.239624 -21.115356 -16.061908 -12.629083 -31.472295 0.000000 0.000000 0.000000 -95.314649 33.817030 -39.202088 -6.594442 -5.620217 -13.580077 0.000000 0.000000 0.000000 -83.862712 19.076878 -17.376136 -11.583725 -7.257010 -19.341616 0.000000 0.000000 0.000000 -35.384849 46.885561 39.650927 95.188882 23.195097 -8.450359 0.000000 0.000000 0.000000 -2.645074 -4.396407 -1.959110 62.453735 6.844603 -4.246016 13.299991 30.451668 2.657217 20.552263 -4.194951 16.807966 33.179889 -17.918639 2.353320 20.901363 -5.767174 -0.286997 0.000000 0.000000 0.000000 36.805425 -4.635188 -6.904836 19.138884 2.726554 -14.230882 0.000000 0.000000 0.000000 6.528438 32.644028 -41.035763 22.685963 -0.628259 6.222965 0.000000 0.000000 0.000000 33.451898 15.008222 -10.308736 17.136267 2.640695 -11.429271 0.000000 0.000000 0.000000 -1.533134 -39.426341 42.390608 -14.794434 14.356549 -11.486202 0.000000 0.000000 0.000000 
0.007152 0.937555 -0.002052 1.963840 1.005390 -4.952061 -0.046227 1.164359 8.003931 0.622074 0.321041 -3.273097 -2.201988 -4.210750 0.346920 0.000000 0.000000 0.000000 -3.450505 -0.374211 5.390491 -1.707505 0.247329 2.995650 0.338716 4.812282 -5.537159 0.000000 0.000000 0.000000 -1.850887 -0.393347 5.497425 -7.937412 0.113563 -14.879427 8.110875 -0.848811 26.605402 3.437838 -0.432717 -1.070125 0.000000 0.000000 0.000000 -4.129940 2.285504 -1.644684 -54.377557 -0.905297 -9.570803 -19.141896 -29.586615 8.164900 -11.484219 6.232803 15.456370 -42.420190 21.598774 1.159042 -49.821598 16.279076 1.914140 0.000000 0.000000 0.000000 -51.967352 22.852982 -8.502587 -35.527829 1.848595 -5.974014 0.000000 0.000000 0.000000 -73.380103 8.526549 -31.866812 5.108342 3.519050 9.350434 0.000000 0.000000 0.000000 -64.129320 9.982685 -10.395201 -22.656809 -3.597899 -6.303812 0.000000 0.000000 0.000000 -10.635619 25.263029 27.151044 35.300886 1.866535 -12.420306 0.000000 0.000000 0.000000 -2.579838 -2.060127 -0.780027 63.023823 7.457504 -4.429802 12.383619 32.108299 2.600817 12.384770 -1.098016 14.321962 26.507068 -3.753561 0.438983 27.835608 -6.438567 0.511770 0.000000 0.000000 0.000000 31.171365 0.458279 -6.595273 25.419848 3.528392 -15.683625 0.000000 0.000000 0.000000 25.175699 19.830151 -26.236676 18.301267 2.571909 -7.299388 0.000000 0.000000 0.000000 33.851444 11.081573 -8.043205 22.175614 5.372363 -17.409529 0.000000 0.000000 0.000000 4.867008 -30.530836 30.931130 -16.702895 10.815103 -10.816272 0.000000 0.000000 0.000000 
